<svg xmlns="http://www.w3.org/2000/svg" viewBox="0 0 100 100" fill="none">
  <g stroke="#edc574" stroke-linecap="round" stroke-linejoin="round">
    <circle cx="50" cy="49" r="36.5" stroke-width="1.7" />
    <path d="M19 52.5 40.5 30l10.2 8.1M39.5 66 19 52.5m20.5 13.2c-.2-12.8 2.8-24.4 19.2-38.2l1.4 18.7M39.5 65.7c8.1-8.7 18.3-13.5 39-17.4L65 64.5c-11.1-1.9-19.6-1.2-25.5 1.2Z" stroke-width="1.7" />
    <path d="m22.5 49 17 12.1m-13.7-15.8L41.6 34m1.1 26.1c1.8-9.1 7.1-17.5 16.7-26.4m-14.2 26.8c9-5.2 20.1-8.1 31.7-9.6M39.7 66.1c12.8-3.2 25.1-2.4 39.2 2.4L66.2 78c-9.2-5.4-17.5-9.5-26.5-11.9Zm4.5 2.4c8.4.6 16.1 3.9 22 7.8M47 64.1c9.1 1.2 17.1 4 24 7.2" stroke-width="1.1" />
    <path d="m39.5 66 20.6 14.3 20.1-22.5m-43.2 10.1 22.6 16 22.9-25.7m-44.2 7.2 21.9 15.9 24-27" stroke-width="1.45" />
    <path d="M18 56.5a36.5 36.5 0 0 0 7.2 15.2M76 20.8a36.5 36.5 0 0 1 9 8.5M78.7 77.9a36.5 36.5 0 0 1-10.8 6.3" stroke-width=".8" opacity=".72" />
  </g>
</svg>